# Blender v2.93.6 OBJ File: ''
# www.blender.org
mtllib kms.mtl
o Cube
v 0.206925 0.741673 -1.179135
v 0.206544 -0.083152 -1.178932
v 0.172549 0.755254 1.512099
v 0.172549 0.040462 1.512099
v -0.617054 0.741673 -1.179135
v -0.617054 -0.082305 -1.179135
v -0.507209 0.684274 1.334471
v -0.482172 0.195227 1.513722
v 1.423271 0.998891 0.000000
v -1.423271 0.998891 0.000000
v 0.000000 -2.191529 1.000000
v -0.060431 -2.054786 -0.967604
v 1.423271 -1.000000 0.000000
v -1.423271 -1.000000 0.000000
v 0.986771 -1.029427 -0.992881
v -1.002016 -0.979957 -0.987184
v 1.000131 0.999180 -0.999920
v -0.988283 1.052696 -0.992885
v -0.993733 -0.971051 1.003806
v -0.994536 1.023812 1.003318
v 1.000000 0.998574 1.000000
v 1.000000 -1.000000 1.000000
v -0.399129 0.516302 -2.654207
v -0.148191 0.700771 2.646334
v -0.007766 -0.968196 -0.972345
v 0.012102 1.009345 1.007349
v 0.011487 -0.946940 1.006976
v 0.025170 1.069705 -0.984716
v -0.013257 -1.029546 0.007107
v -0.195552 -0.038103 -1.173233
v -0.105136 -0.082239 1.522181
v 0.000000 1.688511 0.000000
v 1.000548 2.452867 0.726932
v -0.382167 2.452867 1.176210
v -1.236753 2.452867 0.000000
v -0.382167 2.452867 -1.176210
v 1.000548 2.452867 -0.726932
v 0.382167 3.689627 1.176210
v -1.000548 3.689627 0.726932
v -1.000548 3.689627 -0.726932
v 0.382167 3.689627 -1.176210
v 1.236753 3.689627 0.000000
v 0.000000 4.453982 0.000000
vt 0.473055 0.009251
vt 0.473055 0.009251
vt 0.473055 0.009251
vt 0.473055 0.009251
vt 0.473055 0.009251
vt 0.473055 0.009251
vt 0.473055 0.009251
vt 0.473055 0.009251
vt 0.473055 0.009251
vt 0.473055 0.009251
vt 0.209410 0.475781
vt 0.046446 0.788950
vt 0.040894 0.478797
vt 0.364282 0.793090
vt 0.377782 0.478524
vt 0.473055 0.009251
vt 0.473055 0.009251
vt 0.473055 0.009251
vt 0.473055 0.009251
vt 0.473055 0.009251
vt 0.473055 0.009251
vt 0.473055 0.009251
vt 0.473055 0.009251
vt 0.473055 0.009251
vt 0.473055 0.009251
vt 0.473055 0.009251
vt 0.473055 0.009251
vt 0.473055 0.009251
vt 0.473055 0.009251
vt 0.473055 0.009251
vt 0.473055 0.009251
vt 0.473055 0.009251
vt 0.473055 0.009251
vt 0.473055 0.009251
vt 0.473055 0.009251
vt 0.473055 0.009251
vt 0.202709 0.997070
vt 0.205735 0.763186
vt 0.473055 0.009251
vt 0.473055 0.009251
vt 0.706867 0.665123
vt 0.815837 0.476267
vt 0.925556 0.663345
vt 0.473055 0.009251
vt 0.473055 0.009251
vt 0.473055 0.009251
vt 0.816548 0.813170
vt 0.473055 0.009251
vt 0.473055 0.009251
vt 0.473055 0.009251
vt 0.473055 0.009251
vt 0.639830 0.870639
vt 0.993640 0.868196
vt 0.817042 0.996414
vt 0.473055 0.009251
vt 0.389934 0.952738
vt 0.007906 0.947747
vn 0.0524 0.9959 0.0732
vn -0.5790 0.5546 0.5976
vn -0.0151 0.8713 0.4905
vn -0.4965 0.5948 0.6322
vn -0.0153 0.2136 0.9768
vn -0.8824 0.4705 0.0020
vn -0.6029 -0.2873 -0.7443
vn -0.8907 -0.4546 -0.0037
vn -0.6296 -0.3074 0.7135
vn -0.0023 -0.9385 0.3452
vn 0.8897 -0.4564 -0.0117
vn 0.5987 0.5236 0.6061
vn 0.6338 -0.3064 0.7102
vn 0.5479 0.4782 -0.6863
vn 0.5923 -0.3175 -0.7404
vn -0.3747 -0.2985 -0.8777
vn -0.5417 0.4400 -0.7161
vn -0.1243 0.0634 -0.9902
vn -0.0244 -0.9313 -0.3634
vn -0.5520 0.5280 -0.6453
vn 0.0638 0.8083 -0.5853
vn 0.0000 -0.9996 -0.0292
vn -0.0099 -0.2370 0.9714
vn -0.0068 -0.1133 -0.9935
vn 0.2444 -0.2741 -0.9301
vn -0.0054 -0.6702 -0.7421
vn -0.6808 -0.2585 0.6853
vn 0.5111 -0.3360 0.7911
vn 0.6729 0.5240 0.5221
vn -0.0965 -0.6475 0.7559
vn 0.5344 0.3479 -0.7702
vn 0.8778 0.4790 0.0001
vn 0.7236 -0.4472 0.5257
vn -0.2764 -0.4472 0.8506
vn 0.7236 -0.4472 -0.5257
vn -0.8944 -0.4472 0.0000
vn -0.2764 -0.4472 -0.8506
vn 0.8944 0.4472 0.0000
vn 0.2764 0.4472 0.8506
vn -0.7236 0.4472 0.5257
vn -0.7236 0.4472 -0.5257
vn 0.2764 0.4472 -0.8506
vn 0.0000 1.0000 0.0000
usemtl Kms
s 1
f 32/1/1 20/2/2 26/3/3
f 26/3/3 7/4/4 24/5/5
f 10/6/6 16/7/7 14/8/8
f 19/9/9 14/8/8 11/10/10
f 13/11/11 21/12/12 22/13/13
f 17/14/14 13/11/11 15/15/15
f 6/16/16 5/17/17 23/18/18
f 15/19/15 13/20/11 12/21/19
f 19/9/9 10/6/6 14/8/8
f 18/22/20 32/1/1 28/23/21
f 29/24/22 13/20/11 11/10/10
f 27/25/23 19/9/9 11/10/10
f 13/20/11 22/26/13 11/10/10
f 12/21/19 13/20/11 29/24/22
f 14/8/8 16/7/7 12/21/19
f 25/27/24 15/19/15 12/21/19
f 2/28/25 25/27/24 30/29/26
f 2/28/25 17/30/14 15/19/15
f 6/16/16 18/22/20 5/17/17
f 8/31/27 20/2/2 19/9/9
f 4/32/28 21/33/12 3/34/29
f 8/31/27 27/25/23 31/35/30
f 30/29/26 6/16/16 23/18/18
f 28/23/21 1/36/31 23/18/18
f 1/36/31 2/28/25 23/18/18
f 7/4/4 8/31/27 24/5/5
f 31/35/30 4/32/28 24/5/5
f 4/32/28 3/34/29 24/5/5
f 8/31/27 31/35/30 24/5/5
f 5/17/17 28/23/21 23/18/18
f 2/28/25 30/29/26 23/18/18
f 4/32/28 27/25/23 22/26/13
f 26/3/3 20/2/2 7/4/4
f 1/36/31 28/23/21 17/30/14
f 6/16/16 25/27/24 16/7/7
f 16/7/7 25/27/24 12/21/19
f 12/21/19 29/24/22 14/8/8
f 22/26/13 27/25/23 11/10/10
f 14/8/8 29/24/22 11/10/10
f 17/14/14 32/37/1 9/38/32
f 3/34/29 26/3/3 24/5/5
f 32/37/1 21/12/12 9/38/32
f 32/1/1 33/39/33 34/40/34
f 33/41/33 32/42/1 37/43/35
f 32/1/1 34/40/34 35/44/36
f 32/1/1 35/44/36 36/45/37
f 32/1/1 36/45/37 37/46/35
f 33/41/33 37/43/35 42/47/38
f 34/40/34 33/39/33 38/48/39
f 35/44/36 34/40/34 39/49/40
f 36/45/37 35/44/36 40/50/41
f 37/46/35 36/45/37 41/51/42
f 33/41/33 42/47/38 38/52/39
f 34/40/34 38/48/39 39/49/40
f 35/44/36 39/49/40 40/50/41
f 36/45/37 40/50/41 41/51/42
f 37/43/35 41/53/42 42/47/38
f 38/52/39 42/47/38 43/54/43
f 39/49/40 38/48/39 43/55/43
f 40/50/41 39/49/40 43/55/43
f 41/51/42 40/50/41 43/55/43
f 42/47/38 41/53/42 43/54/43
f 32/1/1 10/6/6 20/2/2
f 10/6/6 18/22/20 16/7/7
f 13/11/11 9/38/32 21/12/12
f 17/14/14 9/38/32 13/11/11
f 19/9/9 20/2/2 10/6/6
f 18/22/20 10/6/6 32/1/1
f 2/28/25 15/19/15 25/27/24
f 2/28/25 1/36/31 17/30/14
f 6/16/16 16/7/7 18/22/20
f 5/17/17 18/22/20 28/23/21
f 8/31/27 7/4/4 20/2/2
f 4/32/28 22/26/13 21/33/12
f 3/34/29 21/33/12 26/3/3
f 8/31/27 19/9/9 27/25/23
f 4/32/28 31/35/30 27/25/23
f 6/16/16 30/29/26 25/27/24
f 17/14/14 28/56/21 32/37/1
f 32/37/1 26/57/3 21/12/12
