# Blender v2.93.6 OBJ File: ''
# www.blender.org
mtllib sphere.mtl
o Sphere
v 0.000000 0.707107 -0.707107
v 0.000000 0.382683 -0.923880
v 0.000000 -0.382683 -0.923880
v 0.000000 -0.923880 -0.382683
v 0.146447 0.923880 -0.353553
v 0.270598 0.707107 -0.653281
v 0.353553 0.382683 -0.853553
v 0.382683 -0.000000 -0.923880
v 0.353553 -0.382683 -0.853553
v 0.270598 -0.707107 -0.653281
v 0.146447 -0.923880 -0.353553
v 0.270598 0.923880 -0.270598
v 0.500000 0.707107 -0.500000
v 0.653282 0.382683 -0.653281
v 0.707107 -0.000000 -0.707107
v 0.653282 -0.382683 -0.653281
v 0.500000 -0.707107 -0.500000
v 0.270598 -0.923880 -0.270598
v 0.353554 0.923880 -0.146447
v 0.653282 0.707107 -0.270598
v 0.853554 0.382683 -0.353553
v 0.923880 -0.000000 -0.382683
v 0.853554 -0.382683 -0.353553
v 0.653282 -0.707107 -0.270598
v 0.353554 -0.923880 -0.146447
v 0.382684 0.923880 0.000000
v 0.707107 0.707107 0.000000
v 0.923880 0.382683 0.000000
v 1.000000 -0.000000 0.000000
v 0.923880 -0.382683 0.000000
v 0.707107 -0.707107 0.000000
v 0.382684 -0.923880 0.000000
v 0.353553 0.923880 0.146447
v 0.653282 0.707107 0.270598
v 0.853553 0.382683 0.353554
v 0.923879 -0.000000 0.382684
v 0.853553 -0.382683 0.353554
v 0.653282 -0.707107 0.270598
v 0.353553 -0.923880 0.146447
v 0.270598 0.923880 0.270598
v 0.500000 0.707107 0.500000
v 0.653281 0.382683 0.653282
v 0.707107 -0.000000 0.707107
v 0.653281 -0.382683 0.653282
v 0.500000 -0.707107 0.500000
v 0.270598 -0.923880 0.270598
v 0.146447 0.923880 0.353554
v 0.270598 0.707107 0.653282
v 0.353553 0.382683 0.853554
v 0.382683 -0.000000 0.923880
v 0.353553 -0.382683 0.853554
v 0.270598 -0.707107 0.653282
v 0.146447 -0.923880 0.353554
v -0.000000 1.000000 0.000000
v -0.000000 0.923880 0.382684
v -0.000000 0.707107 0.707107
v -0.000000 0.382683 0.923880
v -0.000000 -0.000000 1.000000
v -0.000000 -0.382683 0.923880
v -0.000000 -0.707107 0.707107
v -0.000000 -0.923880 0.382684
v -0.146447 0.923880 0.353553
v -0.270598 0.707107 0.653282
v -0.353554 0.382683 0.853553
v -0.382684 -0.000000 0.923880
v -0.353554 -0.382683 0.853553
v -0.270598 -0.707107 0.653282
v -0.146447 -0.923880 0.353553
v -0.270598 0.923880 0.270598
v -0.500000 0.707107 0.500000
v -0.653282 0.382683 0.653281
v -0.707107 -0.000000 0.707107
v -0.653282 -0.382683 0.653281
v -0.500000 -0.707107 0.500000
v -0.270598 -0.923880 0.270598
v 0.000000 -1.000000 0.000000
v -0.353553 0.923880 0.146447
v -0.653282 0.707107 0.270598
v -0.853553 0.382683 0.353553
v -0.923880 -0.000000 0.382683
v -0.853553 -0.382683 0.353553
v -0.653282 -0.707107 0.270598
v -0.353553 -0.923880 0.146447
v -0.382683 0.923880 -0.000000
v -0.707107 0.707107 -0.000000
v -0.923879 0.382683 -0.000000
v -1.000000 -0.000000 -0.000000
v -0.923879 -0.382683 -0.000000
v -0.707107 -0.707107 -0.000000
v -0.382683 -0.923880 -0.000000
v -0.353553 0.923880 -0.146447
v -0.653281 0.707107 -0.270598
v -0.853553 0.382683 -0.353554
v -0.923879 -0.000000 -0.382684
v -0.853553 -0.382683 -0.353554
v -0.653281 -0.707107 -0.270598
v -0.353553 -0.923880 -0.146447
v -0.270598 0.923880 -0.270598
v -0.500000 0.707107 -0.500000
v -0.653281 0.382683 -0.653282
v -0.707106 -0.000000 -0.707107
v -0.653281 -0.382683 -0.653282
v -0.500000 -0.707107 -0.500000
v -0.270598 -0.923880 -0.270598
v -0.146446 0.923880 -0.353553
v -0.270598 0.707107 -0.653281
v -0.353553 0.382683 -0.853553
v -0.382683 -0.000000 -0.923880
v -0.353553 -0.382683 -0.853553
v -0.270598 -0.707107 -0.653281
v -0.146446 -0.923880 -0.353553
v 0.000000 0.923880 -0.382683
v 0.000001 -0.000000 -1.000000
v 0.000000 -0.707107 -0.707107
vt 0.750000 0.250000
vt 0.687500 0.375000
vt 0.687500 0.250000
vt 0.750000 0.500000
vt 0.687500 0.625000
vt 0.687500 0.500000
vt 0.750000 0.875000
vt 0.687500 0.750000
vt 0.750000 0.750000
vt 0.687500 0.125000
vt 0.750000 0.125000
vt 0.750000 0.375000
vt 0.750000 0.625000
vt 0.718750 1.000000
vt 0.687500 0.875000
vt 0.718750 0.000000
vt 0.625000 0.125000
vt 0.625000 0.375000
vt 0.625000 0.625000
vt 0.656250 1.000000
vt 0.625000 0.875000
vt 0.656250 0.000000
vt 0.625000 0.250000
vt 0.625000 0.500000
vt 0.625000 0.750000
vt 0.562500 0.625000
vt 0.593750 1.000000
vt 0.562500 0.875000
vt 0.593750 0.000000
vt 0.562500 0.125000
vt 0.562500 0.250000
vt 0.562500 0.500000
vt 0.562500 0.750000
vt 0.562500 0.375000
vt 0.531250 0.000000
vt 0.500000 0.125000
vt 0.500000 0.250000
vt 0.500000 0.625000
vt 0.500000 0.500000
vt 0.500000 0.875000
vt 0.500000 0.750000
vt 0.500000 0.375000
vt 0.531250 1.000000
vt 0.437500 0.750000
vt 0.437500 0.250000
vt 0.437500 0.125000
vt 0.437500 0.375000
vt 0.437500 0.625000
vt 0.468750 1.000000
vt 0.437500 0.875000
vt 0.468750 0.000000
vt 0.437500 0.500000
vt 0.375000 0.125000
vt 0.375000 0.375000
vt 0.375000 0.750000
vt 0.375000 0.625000
vt 0.406250 1.000000
vt 0.375000 0.875000
vt 0.406250 0.000000
vt 0.375000 0.250000
vt 0.375000 0.500000
vt 0.343750 1.000000
vt 0.312500 0.875000
vt 0.343750 0.000000
vt 0.312500 0.125000
vt 0.312500 0.250000
vt 0.312500 0.500000
vt 0.312500 0.750000
vt 0.312500 0.375000
vt 0.312500 0.625000
vt 0.250000 0.250000
vt 0.250000 0.500000
vt 0.250000 0.750000
vt 0.250000 0.125000
vt 0.250000 0.375000
vt 0.250000 0.625000
vt 0.281250 1.000000
vt 0.250000 0.875000
vt 0.281250 0.000000
vt 0.187500 0.125000
vt 0.187500 0.500000
vt 0.187500 0.375000
vt 0.187500 0.625000
vt 0.218750 1.000000
vt 0.187500 0.875000
vt 0.218750 0.000000
vt 0.187500 0.250000
vt 0.187500 0.750000
vt 0.125000 0.375000
vt 0.125000 0.625000
vt 0.156250 1.000000
vt 0.125000 0.875000
vt 0.156250 0.000000
vt 0.125000 0.125000
vt 0.125000 0.250000
vt 0.125000 0.500000
vt 0.125000 0.750000
vt 0.093750 0.000000
vt 0.062500 0.125000
vt 0.062500 0.250000
vt 0.062500 0.500000
vt 0.062500 0.750000
vt 0.062500 0.375000
vt 0.062500 0.625000
vt 0.093750 1.000000
vt 0.062500 0.875000
vt 0.000000 0.625000
vt 0.000000 0.500000
vt 0.000000 0.750000
vt 0.000000 0.125000
vt 0.000000 0.375000
vt 0.031250 1.000000
vt 0.000000 0.875000
vt 0.031250 0.000000
vt 0.000000 0.250000
vt 1.000000 0.250000
vt 0.937500 0.125000
vt 1.000000 0.125000
vt 1.000000 0.500000
vt 0.937500 0.375000
vt 1.000000 0.375000
vt 1.000000 0.625000
vt 0.937500 0.750000
vt 0.937500 0.625000
vt 1.000000 0.875000
vt 0.968750 1.000000
vt 0.937500 0.875000
vt 0.968750 0.000000
vt 0.937500 0.250000
vt 0.937500 0.500000
vt 1.000000 0.750000
vt 0.875000 0.750000
vt 0.875000 0.625000
vt 0.906250 1.000000
vt 0.875000 0.875000
vt 0.906250 0.000000
vt 0.875000 0.125000
vt 0.875000 0.250000
vt 0.875000 0.500000
vt 0.875000 0.375000
vt 0.843750 0.000000
vt 0.812500 0.125000
vt 0.812500 0.250000
vt 0.812500 0.625000
vt 0.812500 0.500000
vt 0.812500 0.750000
vt 0.812500 0.375000
vt 0.843750 1.000000
vt 0.812500 0.875000
vt 0.781250 1.000000
vt 0.781250 0.000000
vn 0.0000 -0.6952 -0.7188
vn 0.3548 -0.3743 -0.8567
vn 0.2751 -0.6952 -0.6641
vn 0.0000 0.0000 -1.0000
vn 0.3548 0.3743 -0.8567
vn 0.3827 0.0000 -0.9239
vn 0.0000 0.9152 -0.4031
vn 0.2751 0.6952 -0.6641
vn 0.0000 0.6952 -0.7188
vn 0.1542 -0.9152 -0.3724
vn 0.0000 -0.9152 -0.4031
vn 0.0000 -0.3743 -0.9273
vn 0.0000 0.3743 -0.9273
vn 0.0000 1.0000 0.0000
vn 0.1542 0.9152 -0.3724
vn 0.0000 -1.0000 0.0000
vn 0.2850 -0.9152 -0.2850
vn 0.6557 -0.3743 -0.6557
vn 0.6557 0.3743 -0.6557
vn 0.2850 0.9152 -0.2850
vn 0.5083 -0.6952 -0.5083
vn 0.7071 0.0000 -0.7071
vn 0.5083 0.6952 -0.5083
vn 0.8567 0.3743 -0.3548
vn 0.3724 0.9152 -0.1542
vn 0.3724 -0.9152 -0.1542
vn 0.6641 -0.6952 -0.2751
vn 0.9239 0.0000 -0.3827
vn 0.6641 0.6952 -0.2751
vn 0.8567 -0.3743 -0.3548
vn 0.4031 -0.9152 0.0000
vn 0.7188 -0.6952 0.0000
vn 0.9273 0.3743 0.0000
vn 1.0000 0.0000 0.0000
vn 0.4031 0.9152 0.0000
vn 0.7188 0.6952 0.0000
vn 0.9273 -0.3743 0.0000
vn 0.6641 0.6952 0.2751
vn 0.6641 -0.6952 0.2751
vn 0.3724 -0.9152 0.1542
vn 0.8567 -0.3743 0.3548
vn 0.8567 0.3743 0.3548
vn 0.3724 0.9152 0.1542
vn 0.9239 0.0000 0.3827
vn 0.2850 -0.9152 0.2850
vn 0.6557 -0.3743 0.6557
vn 0.5083 0.6952 0.5083
vn 0.6557 0.3743 0.6557
vn 0.2850 0.9152 0.2850
vn 0.5083 -0.6952 0.5083
vn 0.7071 0.0000 0.7071
vn 0.1542 0.9152 0.3724
vn 0.1542 -0.9152 0.3724
vn 0.2751 -0.6952 0.6641
vn 0.3827 0.0000 0.9239
vn 0.2751 0.6952 0.6641
vn 0.3548 -0.3743 0.8567
vn 0.3548 0.3743 0.8567
vn 0.0000 -0.6952 0.7188
vn 0.0000 0.0000 1.0000
vn 0.0000 0.6952 0.7188
vn 0.0000 -0.9152 0.4031
vn 0.0000 -0.3743 0.9273
vn 0.0000 0.3743 0.9273
vn 0.0000 0.9152 0.4031
vn -0.1542 -0.9152 0.3724
vn -0.3827 0.0000 0.9239
vn -0.3548 -0.3743 0.8567
vn -0.3548 0.3743 0.8567
vn -0.1542 0.9152 0.3724
vn -0.2751 -0.6952 0.6641
vn -0.2751 0.6952 0.6641
vn -0.6557 -0.3743 0.6557
vn -0.6557 0.3743 0.6557
vn -0.2850 0.9152 0.2850
vn -0.2850 -0.9152 0.2850
vn -0.5083 -0.6952 0.5083
vn -0.7071 0.0000 0.7071
vn -0.5083 0.6952 0.5083
vn -0.3724 -0.9152 0.1542
vn -0.6641 -0.6952 0.2751
vn -0.9239 0.0000 0.3827
vn -0.6641 0.6952 0.2751
vn -0.8567 -0.3743 0.3548
vn -0.8567 0.3743 0.3548
vn -0.3724 0.9152 0.1542
vn -0.9273 0.3743 0.0000
vn -1.0000 0.0000 0.0000
vn -0.7188 0.6952 0.0000
vn -0.4031 -0.9152 0.0000
vn -0.9273 -0.3743 0.0000
vn -0.4031 0.9152 0.0000
vn -0.7188 -0.6952 0.0000
vn -0.3724 -0.9152 -0.1542
vn -0.8567 -0.3743 -0.3548
vn -0.6641 0.6952 -0.2751
vn -0.8567 0.3743 -0.3548
vn -0.3724 0.9152 -0.1542
vn -0.6641 -0.6952 -0.2751
vn -0.9239 0.0000 -0.3827
vn -0.5083 0.6952 -0.5083
vn -0.6557 0.3743 -0.6557
vn -0.2850 0.9152 -0.2850
vn -0.2850 -0.9152 -0.2850
vn -0.5083 -0.6952 -0.5083
vn -0.7071 0.0000 -0.7071
vn -0.6557 -0.3743 -0.6557
vn -0.1542 -0.9152 -0.3724
vn -0.2751 -0.6952 -0.6641
vn -0.3548 0.3743 -0.8567
vn -0.3827 0.0000 -0.9239
vn -0.2751 0.6952 -0.6641
vn -0.3548 -0.3743 -0.8567
vn -0.1542 0.9152 -0.3724
usemtl Material
s 1
f 114/1/1 9/2/2 10/3/3
f 113/4/4 7/5/5 8/6/6
f 112/7/7 6/8/8 1/9/9
f 114/1/1 11/10/10 4/11/11
f 113/4/4 9/2/2 3/12/12
f 1/9/9 7/5/5 2/13/13
f 112/7/7 54/14/14 5/15/15
f 76/16/16 4/11/11 11/10/10
f 10/3/3 18/17/17 11/10/10
f 8/6/6 16/18/18 9/2/2
f 6/8/8 14/19/19 7/5/5
f 5/15/15 54/20/14 12/21/20
f 76/22/16 11/10/10 18/17/17
f 9/2/2 17/23/21 10/3/3
f 7/5/5 15/24/22 8/6/6
f 5/15/15 13/25/23 6/8/8
f 13/25/23 21/26/24 14/19/19
f 12/21/20 54/27/14 19/28/25
f 76/29/16 18/17/17 25/30/26
f 16/18/18 24/31/27 17/23/21
f 14/19/19 22/32/28 15/24/22
f 12/21/20 20/33/29 13/25/23
f 17/23/21 25/30/26 18/17/17
f 15/24/22 23/34/30 16/18/18
f 76/35/16 25/30/26 32/36/31
f 23/34/30 31/37/32 24/31/27
f 22/32/28 28/38/33 29/39/34
f 20/33/29 26/40/35 27/41/36
f 24/31/27 32/36/31 25/30/26
f 22/32/28 30/42/37 23/34/30
f 20/33/29 28/38/33 21/26/24
f 19/28/25 54/43/14 26/40/35
f 26/40/35 34/44/38 27/41/36
f 32/36/31 38/45/39 39/46/40
f 29/39/34 37/47/41 30/42/37
f 28/38/33 34/44/38 35/48/42
f 26/40/35 54/49/14 33/50/43
f 76/51/16 32/36/31 39/46/40
f 30/42/37 38/45/39 31/37/32
f 28/38/33 36/52/44 29/39/34
f 38/45/39 46/53/45 39/46/40
f 36/52/44 44/54/46 37/47/41
f 35/48/42 41/55/47 42/56/48
f 33/50/43 54/57/14 40/58/49
f 76/59/16 39/46/40 46/53/45
f 37/47/41 45/60/50 38/45/39
f 35/48/42 43/61/51 36/52/44
f 33/50/43 41/55/47 34/44/38
f 40/58/49 54/62/14 47/63/52
f 76/64/16 46/53/45 53/65/53
f 44/54/46 52/66/54 45/60/50
f 42/56/48 50/67/55 43/61/51
f 40/58/49 48/68/56 41/55/47
f 46/53/45 52/66/54 53/65/53
f 44/54/46 50/67/55 51/69/57
f 42/56/48 48/68/56 49/70/58
f 51/69/57 60/71/59 52/66/54
f 49/70/58 58/72/60 50/67/55
f 47/63/52 56/73/61 48/68/56
f 53/65/53 60/71/59 61/74/62
f 50/67/55 59/75/63 51/69/57
f 48/68/56 57/76/64 49/70/58
f 47/63/52 54/77/14 55/78/65
f 76/79/16 53/65/53 61/74/62
f 60/71/59 68/80/66 61/74/62
f 59/75/63 65/81/67 66/82/68
f 56/73/61 64/83/69 57/76/64
f 55/78/65 54/84/14 62/85/70
f 76/86/16 61/74/62 68/80/66
f 59/75/63 67/87/71 60/71/59
f 58/72/60 64/83/69 65/81/67
f 55/78/65 63/88/72 56/73/61
f 65/81/67 73/89/73 66/82/68
f 63/88/72 71/90/74 64/83/69
f 62/85/70 54/91/14 69/92/75
f 76/93/16 68/80/66 75/94/76
f 66/82/68 74/95/77 67/87/71
f 64/83/69 72/96/78 65/81/67
f 62/85/70 70/97/79 63/88/72
f 68/80/66 74/95/77 75/94/76
f 76/98/16 75/94/76 83/99/80
f 73/89/73 82/100/81 74/95/77
f 71/90/74 80/101/82 72/96/78
f 69/92/75 78/102/83 70/97/79
f 75/94/76 82/100/81 83/99/80
f 72/96/78 81/103/84 73/89/73
f 70/97/79 79/104/85 71/90/74
f 69/92/75 54/105/14 77/106/86
f 80/101/82 86/107/87 87/108/88
f 77/106/86 85/109/89 78/102/83
f 82/100/81 90/110/90 83/99/80
f 80/101/82 88/111/91 81/103/84
f 79/104/85 85/109/89 86/107/87
f 77/106/86 54/112/14 84/113/92
f 76/114/16 83/99/80 90/110/90
f 81/103/84 89/115/93 82/100/81
f 89/116/93 97/117/94 90/118/90
f 87/119/88 95/120/95 88/121/91
f 86/122/87 92/123/96 93/124/97
f 84/125/92 54/126/14 91/127/98
f 76/128/16 90/118/90 97/117/94
f 88/121/91 96/129/99 89/116/93
f 87/119/88 93/124/97 94/130/100
f 84/125/92 92/123/96 85/131/89
f 93/124/97 99/132/101 100/133/102
f 91/127/98 54/134/14 98/135/103
f 76/136/16 97/117/94 104/137/104
f 95/120/95 103/138/105 96/129/99
f 94/130/100 100/133/102 101/139/106
f 91/127/98 99/132/101 92/123/96
f 96/129/99 104/137/104 97/117/94
f 94/130/100 102/140/107 95/120/95
f 76/141/16 104/137/104 111/142/108
f 102/140/107 110/143/109 103/138/105
f 101/139/106 107/144/110 108/145/111
f 98/135/103 106/146/112 99/132/101
f 103/138/105 111/142/108 104/137/104
f 101/139/106 109/147/113 102/140/107
f 100/133/102 106/146/112 107/144/110
f 98/135/103 54/148/14 105/149/114
f 105/149/114 1/9/9 106/146/112
f 110/143/109 4/11/11 111/142/108
f 108/145/111 3/12/12 109/147/113
f 107/144/110 1/9/9 2/13/13
f 105/149/114 54/150/14 112/7/7
f 76/151/16 111/142/108 4/11/11
f 109/147/113 114/1/1 110/143/109
f 108/145/111 2/13/13 113/4/4
f 114/1/1 3/12/12 9/2/2
f 113/4/4 2/13/13 7/5/5
f 112/7/7 5/15/15 6/8/8
f 114/1/1 10/3/3 11/10/10
f 113/4/4 8/6/6 9/2/2
f 1/9/9 6/8/8 7/5/5
f 10/3/3 17/23/21 18/17/17
f 8/6/6 15/24/22 16/18/18
f 6/8/8 13/25/23 14/19/19
f 9/2/2 16/18/18 17/23/21
f 7/5/5 14/19/19 15/24/22
f 5/15/15 12/21/20 13/25/23
f 13/25/23 20/33/29 21/26/24
f 16/18/18 23/34/30 24/31/27
f 14/19/19 21/26/24 22/32/28
f 12/21/20 19/28/25 20/33/29
f 17/23/21 24/31/27 25/30/26
f 15/24/22 22/32/28 23/34/30
f 23/34/30 30/42/37 31/37/32
f 22/32/28 21/26/24 28/38/33
f 20/33/29 19/28/25 26/40/35
f 24/31/27 31/37/32 32/36/31
f 22/32/28 29/39/34 30/42/37
f 20/33/29 27/41/36 28/38/33
f 26/40/35 33/50/43 34/44/38
f 32/36/31 31/37/32 38/45/39
f 29/39/34 36/52/44 37/47/41
f 28/38/33 27/41/36 34/44/38
f 30/42/37 37/47/41 38/45/39
f 28/38/33 35/48/42 36/52/44
f 38/45/39 45/60/50 46/53/45
f 36/52/44 43/61/51 44/54/46
f 35/48/42 34/44/38 41/55/47
f 37/47/41 44/54/46 45/60/50
f 35/48/42 42/56/48 43/61/51
f 33/50/43 40/58/49 41/55/47
f 44/54/46 51/69/57 52/66/54
f 42/56/48 49/70/58 50/67/55
f 40/58/49 47/63/52 48/68/56
f 46/53/45 45/60/50 52/66/54
f 44/54/46 43/61/51 50/67/55
f 42/56/48 41/55/47 48/68/56
f 51/69/57 59/75/63 60/71/59
f 49/70/58 57/76/64 58/72/60
f 47/63/52 55/78/65 56/73/61
f 53/65/53 52/66/54 60/71/59
f 50/67/55 58/72/60 59/75/63
f 48/68/56 56/73/61 57/76/64
f 60/71/59 67/87/71 68/80/66
f 59/75/63 58/72/60 65/81/67
f 56/73/61 63/88/72 64/83/69
f 59/75/63 66/82/68 67/87/71
f 58/72/60 57/76/64 64/83/69
f 55/78/65 62/85/70 63/88/72
f 65/81/67 72/96/78 73/89/73
f 63/88/72 70/97/79 71/90/74
f 66/82/68 73/89/73 74/95/77
f 64/83/69 71/90/74 72/96/78
f 62/85/70 69/92/75 70/97/79
f 68/80/66 67/87/71 74/95/77
f 73/89/73 81/103/84 82/100/81
f 71/90/74 79/104/85 80/101/82
f 69/92/75 77/106/86 78/102/83
f 75/94/76 74/95/77 82/100/81
f 72/96/78 80/101/82 81/103/84
f 70/97/79 78/102/83 79/104/85
f 80/101/82 79/104/85 86/107/87
f 77/106/86 84/113/92 85/109/89
f 82/100/81 89/115/93 90/110/90
f 80/101/82 87/108/88 88/111/91
f 79/104/85 78/102/83 85/109/89
f 81/103/84 88/111/91 89/115/93
f 89/116/93 96/129/99 97/117/94
f 87/119/88 94/130/100 95/120/95
f 86/122/87 85/131/89 92/123/96
f 88/121/91 95/120/95 96/129/99
f 87/119/88 86/122/87 93/124/97
f 84/125/92 91/127/98 92/123/96
f 93/124/97 92/123/96 99/132/101
f 95/120/95 102/140/107 103/138/105
f 94/130/100 93/124/97 100/133/102
f 91/127/98 98/135/103 99/132/101
f 96/129/99 103/138/105 104/137/104
f 94/130/100 101/139/106 102/140/107
f 102/140/107 109/147/113 110/143/109
f 101/139/106 100/133/102 107/144/110
f 98/135/103 105/149/114 106/146/112
f 103/138/105 110/143/109 111/142/108
f 101/139/106 108/145/111 109/147/113
f 100/133/102 99/132/101 106/146/112
f 105/149/114 112/7/7 1/9/9
f 110/143/109 114/1/1 4/11/11
f 108/145/111 113/4/4 3/12/12
f 107/144/110 106/146/112 1/9/9
f 109/147/113 3/12/12 114/1/1
f 108/145/111 107/144/110 2/13/13
